<?xml version="1.0" standalone="no"?>
<!DOCTYPE svg PUBLIC "-//W3C//DTD SVG 20010904//EN"
 "http://www.w3.org/TR/2001/REC-SVG-20010904/DTD/svg10.dtd">
<svg version="1.0" xmlns="http://www.w3.org/2000/svg"
 width="512.000000pt" height="512.000000pt" viewBox="0 0 512.000000 512.000000"
 preserveAspectRatio="xMidYMid meet">
<metadata>
Created by potrace 1.11, written by Peter Selinger 2001-2013
</metadata>
<g transform="translate(0.000000,512.000000) scale(0.100000,-0.100000)"
fill="#000000" stroke="none">
<path d="M2421 4977 l-139 -140 -58 59 -59 59 -864 -1 -863 0 -70 -72 -69 -72
-1 -183 c0 -100 1 -191 1 -203 1 -11 30 -49 66 -85 69 -68 61 -65 180 -68 l40
-1 -1 -566 -1 -566 -289 -289 c-158 -158 -285 -292 -281 -296 4 -4 134 -135
289 -290 l281 -282 0 -690 0 -691 95 -55 95 -55 250 0 250 0 198 203 197 202
446 -445 445 -446 268 268 268 268 61 0 c33 0 68 6 77 13 22 17 60 123 53 151
-4 18 20 48 151 177 86 84 154 147 151 139 -3 -8 -24 -76 -48 -150 -23 -74
-51 -162 -61 -194 -24 -74 -24 -99 -1 -119 16 -15 47 -17 224 -17 114 0 214 3
223 6 17 7 39 45 60 105 13 35 12 40 -7 64 -11 14 -27 24 -36 23 -10 -2 -16 2
-16 7 3 20 168 540 174 548 7 8 249 11 257 4 2 -3 -37 -135 -87 -293 -51 -159
-100 -316 -110 -348 -19 -60 -15 -89 14 -108 5 -4 114 -7 241 -7 168 -1 234 3
246 12 9 7 26 40 39 75 19 51 21 67 12 87 -7 14 -18 26 -27 26 -8 1 -19 3 -25
4 -5 1 -14 3 -20 4 -6 1 -6 9 0 24 5 12 25 74 44 137 19 63 69 227 111 363 42
136 78 257 80 267 2 12 -18 49 -51 95 l-55 75 -179 0 -178 0 -53 -55 -52 -55
-69 0 c-37 0 -68 3 -68 8 0 4 212 219 470 477 259 258 470 473 470 476 0 3
-205 210 -455 460 -250 250 -455 457 -455 461 0 9 9 19 349 367 164 169 357
367 430 441 l131 135 0 193 0 192 -69 68 -69 68 -874 0 -874 -1 -71 -63 -71
-63 1 -101 c1 -58 -3 -103 -8 -105 -6 -1 -124 111 -262 250 l-253 253 -139
-139z m-307 -238 c20 -24 22 -35 21 -143 -1 -90 -5 -120 -17 -132 -11 -11 -42
-16 -129 -17 l-114 -2 -1 -915 c0 -503 1 -919 4 -923 2 -5 21 9 42 30 45 46
1038 1026 1503 1484 l331 326 -222 0 c-281 0 -262 -12 -262 163 0 90 4 131 13
138 8 7 278 10 814 10 699 1 803 -1 814 -14 9 -11 12 -52 11 -131 l-1 -115
-43 -43 c-36 -35 -331 -338 -718 -735 -47 -48 -227 -232 -400 -410 -173 -178
-351 -360 -395 -405 -44 -45 -197 -202 -340 -349 -256 -263 -260 -267 -296
-263 -45 5 -76 -8 -125 -52 -29 -26 -45 -54 -73 -131 l-36 -98 -184 -189
c-101 -103 -326 -334 -500 -512 -174 -178 -386 -395 -471 -481 l-155 -157
-180 2 c-155 1 -184 4 -208 19 l-27 18 0 1874 0 1874 -135 0 c-118 0 -135 2
-143 18 -6 13 -8 149 -3 244 2 44 -16 43 815 43 l788 0 22 -26z m792 -2543 c7
-10 11 -23 9 -29 -2 -7 -15 -51 -30 -98 -17 -59 -33 -93 -53 -110 -25 -23 -34
-25 -125 -24 -83 1 -101 4 -118 21 l-20 20 32 90 c48 138 64 150 199 148 76
-1 95 -4 106 -18z m-166 -570 c0 -9 -24 -79 -53 -156 -3 -8 -24 -71 -48 -140
-23 -69 -83 -247 -134 -396 l-93 -271 64 2 c65 2 72 -3 58 -39 -5 -14 -34 -16
-220 -16 -118 0 -214 1 -214 3 0 1 19 54 41 117 23 63 47 133 54 155 8 22 43
123 78 225 36 102 86 245 112 318 25 73 44 136 41 140 -3 5 -26 7 -53 5 l-48
-4 33 34 33 34 174 0 c121 0 175 -3 175 -11z m1347 -49 l55 -57 102 0 102 0
48 55 48 56 146 -3 146 -3 29 -42 c36 -50 49 10 -112 -508 -66 -214 -121 -395
-121 -401 0 -6 20 -10 49 -8 47 2 49 0 42 -20 -8 -20 -15 -21 -199 -24 l-190
-2 20 62 c11 35 30 97 43 138 13 41 56 176 95 300 40 124 74 233 77 242 4 15
-4 17 -58 20 -35 2 -132 2 -215 0 l-151 -3 -46 -142 c-25 -78 -71 -223 -102
-322 -31 -99 -63 -197 -71 -217 l-14 -38 45 0 c48 0 48 0 39 -24 -5 -14 -30
-16 -175 -16 -93 0 -169 4 -169 8 0 5 52 174 115 376 63 202 115 369 115 371
0 2 -100 3 -223 3 l-222 0 -27 -81 c-14 -45 -47 -149 -73 -232 -26 -82 -65
-204 -86 -269 -21 -66 -36 -122 -34 -125 3 -2 22 -5 43 -6 20 0 36 -4 35 -8
-2 -4 -3 -14 -3 -22 0 -13 -27 -15 -179 -15 l-180 0 160 471 c87 259 159 473
159 475 0 2 -27 4 -60 4 -33 0 -60 2 -60 4 0 3 4 16 10 30 l10 26 174 0 175 0
55 -57 55 -57 96 -1 96 -1 57 61 57 60 109 -1 109 -1 54 -56z"/>
</g>
</svg>
